<mxfile host="65bd71144e">
    <diagram id="lKOQLnMOX3AJ_dL-_zPY" name="Page-1">
        <mxGraphModel dx="2505" dy="1393" grid="0" gridSize="10" guides="1" tooltips="1" connect="1" arrows="1" fold="1" page="0" pageScale="1" pageWidth="827" pageHeight="1169" background="#000000" math="0" shadow="0">
            <root>
                <mxCell id="0"/>
                <mxCell id="1" parent="0"/>
                <mxCell id="2" value="&lt;font style=&quot;font-size: 60px;&quot;&gt;&lt;b&gt;Users&lt;/b&gt;&lt;/font&gt;" style="rounded=0;whiteSpace=wrap;html=1;" vertex="1" parent="1">
                    <mxGeometry x="-289.5" y="-194" width="242" height="117" as="geometry"/>
                </mxCell>
                <mxCell id="9" value="Stores the structure of each lesson’s content split into individual blocks" style="rounded=1;whiteSpace=wrap;html=1;" vertex="1" parent="1">
                    <mxGeometry x="-333" y="903" width="291" height="60" as="geometry"/>
                </mxCell>
                <mxCell id="10" value="&lt;span style=&quot;color: rgb(0, 0, 0);&quot;&gt;&lt;font style=&quot;font-size: 40px;&quot;&gt;&lt;b&gt;Vocab-log&lt;/b&gt;&lt;/font&gt;&lt;/span&gt;" style="rounded=0;whiteSpace=wrap;html=1;" vertex="1" parent="1">
                    <mxGeometry x="364" y="140" width="242" height="117" as="geometry"/>
                </mxCell>
                <mxCell id="11" value="&lt;span style=&quot;color: rgb(0, 0, 0);&quot;&gt;&lt;font style=&quot;font-size: 40px;&quot;&gt;&lt;b&gt;results&lt;/b&gt;&lt;/font&gt;&lt;/span&gt;" style="rounded=0;whiteSpace=wrap;html=1;" vertex="1" parent="1">
                    <mxGeometry x="357.5" y="-357" width="242" height="117" as="geometry"/>
                </mxCell>
                <mxCell id="12" value="&lt;span style=&quot;color: rgb(0, 0, 0);&quot;&gt;&lt;font style=&quot;font-size: 40px;&quot;&gt;&lt;b&gt;lesson-progress&lt;/b&gt;&lt;/font&gt;&lt;/span&gt;" style="rounded=0;whiteSpace=wrap;html=1;" vertex="1" parent="1">
                    <mxGeometry x="-652.5" y="250" width="242" height="117" as="geometry"/>
                </mxCell>
                <mxCell id="13" value="&lt;span style=&quot;color: rgb(0, 0, 0);&quot;&gt;&lt;font style=&quot;font-size: 40px;&quot;&gt;&lt;b&gt;sessions&lt;/b&gt;&lt;/font&gt;&lt;/span&gt;" style="rounded=0;whiteSpace=wrap;html=1;" vertex="1" parent="1">
                    <mxGeometry x="691.5" y="824" width="242" height="117" as="geometry"/>
                </mxCell>
                <mxCell id="14" value="&lt;span style=&quot;color: rgb(0, 0, 0);&quot;&gt;&lt;font style=&quot;font-size: 40px;&quot;&gt;&lt;b&gt;lesson-blocks&lt;/b&gt;&lt;/font&gt;&lt;/span&gt;" style="rounded=0;whiteSpace=wrap;html=1;" vertex="1" parent="1">
                    <mxGeometry x="-866.5" y="755" width="242" height="117" as="geometry"/>
                </mxCell>
                <mxCell id="15" value="&lt;span style=&quot;color: rgb(0, 0, 0);&quot;&gt;&lt;font style=&quot;font-size: 40px;&quot;&gt;&lt;b&gt;lesson-content&lt;/b&gt;&lt;/font&gt;&lt;/span&gt;" style="rounded=0;whiteSpace=wrap;html=1;" vertex="1" parent="1">
                    <mxGeometry x="-306" y="773" width="242" height="117" as="geometry"/>
                </mxCell>
                <mxCell id="16" value="Columns:&lt;div&gt;&lt;ul&gt;&lt;li&gt;id&lt;/li&gt;&lt;li&gt;lesson id&lt;/li&gt;&lt;li&gt;title&lt;/li&gt;&lt;li&gt;content&lt;/li&gt;&lt;li&gt;created_at&lt;/li&gt;&lt;li&gt;target_user&lt;/li&gt;&lt;li&gt;published&lt;/li&gt;&lt;/ul&gt;&lt;/div&gt;" style="rounded=1;whiteSpace=wrap;html=1;align=center;" vertex="1" parent="1">
                    <mxGeometry x="-328" y="971" width="148" height="191" as="geometry"/>
                </mxCell>
                <mxCell id="17" value="Stores the structure of each lesson’s content split into individual blocks (e.g., paragraphs, checkboxes, quiz questions)." style="rounded=1;whiteSpace=wrap;html=1;" vertex="1" parent="1">
                    <mxGeometry x="-891" y="885" width="291" height="60" as="geometry"/>
                </mxCell>
                <mxCell id="18" value="Columns:&lt;div&gt;&lt;ul&gt;&lt;li&gt;lesson id&lt;/li&gt;&lt;li&gt;block_id&lt;/li&gt;&lt;/ul&gt;&lt;/div&gt;" style="rounded=1;whiteSpace=wrap;html=1;align=left;" vertex="1" parent="1">
                    <mxGeometry x="-883" y="953" width="137" height="97" as="geometry"/>
                </mxCell>
                <mxCell id="19" value="rows:&lt;div&gt;one block per specific lesson&lt;/div&gt;" style="rounded=1;whiteSpace=wrap;html=1;align=center;" vertex="1" parent="1">
                    <mxGeometry x="-737" y="953" width="137" height="97" as="geometry"/>
                </mxCell>
                <mxCell id="20" value="rows:&lt;div&gt;oone full lesson&lt;/div&gt;" style="rounded=1;whiteSpace=wrap;html=1;align=center;" vertex="1" parent="1">
                    <mxGeometry x="-179" y="971" width="137" height="97" as="geometry"/>
                </mxCell>
                <mxCell id="21" value="Tracks which blocks a user has completed in a lesson." style="rounded=1;whiteSpace=wrap;html=1;" vertex="1" parent="1">
                    <mxGeometry x="-677" y="376" width="291" height="60" as="geometry"/>
                </mxCell>
                <mxCell id="22" value="Columns:&lt;div&gt;&lt;ul&gt;&lt;li&gt;id&lt;/li&gt;&lt;li&gt;user_id&lt;/li&gt;&lt;li&gt;lesson_id (lesson_content)&lt;/li&gt;&lt;li&gt;block_id (lesson_blocks)&lt;/li&gt;&lt;li&gt;completed&lt;/li&gt;&lt;li&gt;updated_at&lt;/li&gt;&lt;/ul&gt;&lt;/div&gt;" style="rounded=1;whiteSpace=wrap;html=1;align=left;" vertex="1" parent="1">
                    <mxGeometry x="-669" y="444" width="137" height="211" as="geometry"/>
                </mxCell>
                <mxCell id="23" value="rows:&lt;div&gt;one block per specific lesson&lt;/div&gt;" style="rounded=1;whiteSpace=wrap;html=1;align=center;" vertex="1" parent="1">
                    <mxGeometry x="-523" y="444" width="137" height="97" as="geometry"/>
                </mxCell>
                <mxCell id="24" value="Tracks which blocks a user has completed in a lesson." style="rounded=1;whiteSpace=wrap;html=1;" vertex="1" parent="1">
                    <mxGeometry x="333" y="-226" width="291" height="60" as="geometry"/>
                </mxCell>
                <mxCell id="25" value="Columns:&lt;div&gt;&lt;ul&gt;&lt;li&gt;id&lt;/li&gt;&lt;li&gt;username (users)&lt;/li&gt;&lt;li&gt;level&lt;/li&gt;&lt;li&gt;correct&lt;/li&gt;&lt;li&gt;answer&lt;/li&gt;&lt;li&gt;timestamp&lt;/li&gt;&lt;/ul&gt;&lt;/div&gt;" style="rounded=1;whiteSpace=wrap;html=1;align=left;" vertex="1" parent="1">
                    <mxGeometry x="341" y="-148" width="137" height="211" as="geometry"/>
                </mxCell>
                <mxCell id="26" value="rows:&lt;div&gt;a single attempt&lt;/div&gt;" style="rounded=1;whiteSpace=wrap;html=1;align=center;" vertex="1" parent="1">
                    <mxGeometry x="487" y="-148" width="137" height="67" as="geometry"/>
                </mxCell>
                <mxCell id="27" value="&lt;p class=&quot;&quot; data-end=&quot;2350&quot; data-start=&quot;2305&quot;&gt;Stores registered users and hashed passwords.&lt;/p&gt;&lt;h3 class=&quot;&quot; data-end=&quot;2364&quot; data-start=&quot;2352&quot;&gt;&lt;/h3&gt;" style="rounded=1;whiteSpace=wrap;html=1;verticalAlign=middle;" vertex="1" parent="1">
                    <mxGeometry x="-314" y="-68" width="291" height="60" as="geometry"/>
                </mxCell>
                <mxCell id="28" value="Columns:&lt;div&gt;&lt;ul&gt;&lt;li&gt;username&lt;/li&gt;&lt;li&gt;password (hashed)&lt;/li&gt;&lt;li&gt;created&lt;/li&gt;&lt;/ul&gt;&lt;/div&gt;" style="rounded=1;whiteSpace=wrap;html=1;align=left;" vertex="1" parent="1">
                    <mxGeometry x="-310" y="9" width="137" height="134" as="geometry"/>
                </mxCell>
                <mxCell id="29" value="rows:&lt;div&gt;one user&lt;/div&gt;" style="rounded=1;whiteSpace=wrap;html=1;align=center;" vertex="1" parent="1">
                    <mxGeometry x="-164" y="9" width="137" height="66" as="geometry"/>
                </mxCell>
                <mxCell id="30" value="Tracks user login sessions" style="rounded=1;whiteSpace=wrap;html=1;" vertex="1" parent="1">
                    <mxGeometry x="667" y="949" width="291" height="60" as="geometry"/>
                </mxCell>
                <mxCell id="31" value="Columns:&lt;div&gt;&lt;ul&gt;&lt;li&gt;session_id&lt;/li&gt;&lt;li&gt;username&lt;/li&gt;&lt;li&gt;created_at&lt;/li&gt;&lt;/ul&gt;&lt;/div&gt;" style="rounded=1;whiteSpace=wrap;html=1;align=left;" vertex="1" parent="1">
                    <mxGeometry x="682.5" y="1020" width="137" height="124" as="geometry"/>
                </mxCell>
                <mxCell id="33" value="" style="edgeStyle=none;html=1;" edge="1" parent="1" source="32" target="31">
                    <mxGeometry relative="1" as="geometry"/>
                </mxCell>
                <mxCell id="32" value="rows:&lt;div&gt;a login session&lt;/div&gt;" style="rounded=1;whiteSpace=wrap;html=1;align=center;" vertex="1" parent="1">
                    <mxGeometry x="828.5" y="1020" width="137" height="67" as="geometry"/>
                </mxCell>
                <mxCell id="34" value="Stores user_added vocabulary for tracking or practice" style="rounded=1;whiteSpace=wrap;html=1;" vertex="1" parent="1">
                    <mxGeometry x="333" y="266" width="291" height="60" as="geometry"/>
                </mxCell>
                <mxCell id="35" value="Columns:&lt;div&gt;&lt;ul&gt;&lt;li&gt;username (users)&lt;/li&gt;&lt;li&gt;vocab&lt;/li&gt;&lt;li&gt;translation&lt;/li&gt;&lt;/ul&gt;&lt;/div&gt;" style="rounded=1;whiteSpace=wrap;html=1;align=left;" vertex="1" parent="1">
                    <mxGeometry x="343.5" y="333" width="137" height="124" as="geometry"/>
                </mxCell>
                <mxCell id="36" value="" style="edgeStyle=none;html=1;" edge="1" parent="1" source="37" target="35">
                    <mxGeometry relative="1" as="geometry"/>
                </mxCell>
                <mxCell id="37" value="rows:&lt;div&gt;a single vocabulary entry by a user&lt;/div&gt;" style="rounded=1;whiteSpace=wrap;html=1;align=center;" vertex="1" parent="1">
                    <mxGeometry x="489.5" y="333" width="137" height="67" as="geometry"/>
                </mxCell>
            </root>
        </mxGraphModel>
    </diagram>
</mxfile>